<svg xmlns="http://www.w3.org/2000/svg" width="71" height="41" viewBox="0 0 71 41"><g fill-rule="evenodd"><path d="M39.631 13.624h.172-.172zm26.915.088c-.03-.004-.065-.008-.095-.017.03.009.064.013.095.017m-27.572-.097h.017c.073 0 .146.017.228.017-.073 0-.146 0-.228-.017h-.017zm27.116-.503c0-.086-.056-.396-.129-.809.073.413.12.723.13.809"/><path d="M39.4 6.003a.586.586 0 0 1 .33-.36c.942-.25 1.91-.487 2.843-.715.62-.15 1.238-.3 1.849-.455.925-.228 1.849-.482 2.77-.723 1.844-.494 3.749-.997 5.64-1.406.34-.073.685-.142 1.011-.21a44.609 44.609 0 0 1 2.598-.426c.511-.056.984-.095 1.44-.116h.116c.568-.026 1.135-.056 1.716-.074h.817c.593-.004 1.187.022 1.776.082.27.017.542.056.808.116.013.065.03.16.052.267.03.146.06.322.112.524.051.203.081.375.116.564v.047c.025.163.056.323.09.482 0 .034.013.068.017.094-.077.035-.163.048-.245.035a5.152 5.152 0 0 0-1.092 0 366.23 366.23 0 0 0-5.8.812l-1.18.181a91.31 91.31 0 0 0-4.918.804c-2.43.482-4.894 1.015-7.284 1.527-.839.184-1.682.37-2.525.546-.262.056-.511.133-.778.21l-.202.056a12.973 12.973 0 0 1-.03-.391 13.885 13.885 0 0 1-.056-1.466l.009-.005zm20.48.331c-1.582.198-3.173.336-4.747.59-2.425.387-4.85.786-7.254 1.29-2.339.494-4.657 1.1-7.176 1.14l2.73-.784h-.077c3.375-.79 6.79-1.139 10.113-1.947-.189-.112-.408-.15-.619-.112-1.08.159-2.159.314-3.238.49-1.59.262-3.182.55-4.777.804-1.015.16-2.013.52-3.057.65l-1.591-.117-.112-.013c.933-.258 1.784-.567 2.657-.683 1.432-.202 2.782-.813 4.326-.516.894.172 1.9-.202 2.855-.34 1.036-.15 2.073-.305 3.109-.456.374-.056.748-.133 1.118-.202 0-.06-.017-.116-.03-.176-2.025-.177-3.969.615-6.003.468l14.418-2.223c-2.133.503-4.343.624-6.446 1.26 0 .07.018.138.03.202l6.92-.834v.03c0 .065.012.125.02.185a51.393 51.393 0 0 0-8.432 1.38c.073.086.134.112.194.104 1.806-.245 3.608-.564 5.422-.714 1.024-.086 2.047-.572 3.096 0 0 .026.017.056.026.086-1.144.133-2.31.297-3.474.443v-.005zm-20.906 7.28h.017c.073 0 .146.018.228.018.142.004.284 0 .421-.009h.172a.44.44 0 0 0 .168-.043.5.5 0 0 0 .125-.108.465.465 0 0 0 .069-.129c.068-.206.099-.42.081-.636-.025-.718-.266-1.651-.18-1.978a.691.691 0 0 1 .413-.348c.765-.18 1.552-.331 2.313-.478l.77-.146c.946-.189 1.892-.378 2.838-.572 2.124-.434 4.321-.877 6.493-1.247 1.93-.322 3.908-.584 5.818-.838 1.178-.16 2.352-.314 3.526-.49.438-.09.89-.086 1.32.021.086.108.189.198.305.262.787.456 1.234.998 1.449 1.73.022.068.112.562.228 1.203l.039-.039-.04.04c.113.627.246 1.392.354 2.033.025.16.051.31.073.456.073.417.12.726.129.808a.676.676 0 0 0 .228.525.32.32 0 0 0 .107.056h.022c.03.008.064.013.094.017.095.004.19-.004.28-.026l.146-.034c.258-.07.65-.172.598-.684-.04-.387-.731-4.438-.83-4.777a4.23 4.23 0 0 0-1.854-2.413l-.189-.12a4.005 4.005 0 0 1-.094-.318c-.04-.134-.078-.267-.125-.396a1.47 1.47 0 0 0 .258-.288c.258-.408.33-.912.206-1.376l-.051-.245c-.013-.082-.026-.142-.04-.228-.042-.228-.08-.456-.137-.684-.038-.163-.064-.3-.094-.451C64.4.474 63.93.246 62.456.087a29.755 29.755 0 0 0-4.55 0h-.102c-1.161.06-2.318.189-3.462.4-1.883.348-3.698.748-5.383 1.135a168.8 168.8 0 0 0-4.804 1.156c-.683.177-1.393.344-2.072.503l-.052.013c-1.027.228-2.094.49-3.13.796a1.902 1.902 0 0 0-1.286 1.53c-.069.882-.039 1.772.09 2.65.026.447.241.864.594 1.139.086.06.18.112.28.146.02.073.047.142.077.21a12.1 12.1 0 0 0-.15.418 5.678 5.678 0 0 0-.03 3.092c.046.193.227.288.464.326l.034.013z"/><path d="M66.443 13.694h-.026.026zm-27.47-.079h-.038.039zm.658.009c-.142.013-.28.013-.421.013.142 0 .28 0 .421-.013m31.135 17.693c-.06-.348-1.53-8.53-1.612-8.875-.112-.481-.237-.993-.594-1.341a1.085 1.085 0 0 0-.322-.215.833.833 0 0 0-.989.18c.03.336.168 1.054.353 1.978.683 3.298 2.05 9.267 1.638 10.406-.293.826-1.02 1.424-1.772 1.87a14.322 14.322 0 0 1-4.21 1.562c-3.392.76-6.9.817-10.328 1.393-1.35.228-2.696.542-4.064.507-1.367-.034-2.795-.456-3.706-1.475-.847-.937-1.14-2.236-1.398-3.474a.423.423 0 0 0-.4-.443.547.547 0 0 0-.167.026c-.194.021-.387.026-.568.034-.65.03-1.126.086-.911.946a12.4 12.4 0 0 0 .778 2.163c.64 1.368 1.59 2.64 2.984 3.328 2.133 1.067 4.67.538 7.018.155 4.592-.744 9.344-.843 13.704-2.468a9.842 9.842 0 0 0 2.92-1.591 4.804 4.804 0 0 0 1.702-2.795 5.575 5.575 0 0 0-.056-1.87M3.673 18.167a2.18 2.18 0 0 0-.89.808c-.297.482-.292 1.135-.37 1.69a4.426 4.426 0 0 0 .142 2.133c.632 1.728 3.087 2.455 4.575 1.316.727-.55 1.277-1.032 1.436-1.974a7.3 7.3 0 0 0 .134-1.368c-.026-.92-.125-1.909-1.032-2.377-1.088-.56-2.812-.848-3.995-.25m4.322 8.57c-.43.21-.886.52-1.325.507-1.174-.038-2.386.018-3.491-.485-1.854-.843-3.135-2.202-3.17-4.322-.06-1.552.172-3.105.684-4.575a3.428 3.428 0 0 1 2.584-2.305 9.134 9.134 0 0 1 4.606.125c.215.06.503.18.65.094.038-.025.085-.335.188-.412.177-.108.379-.16.585-.151.529-.004 1.054.026 1.578.099.37.03.538.12.58.52.018.228.018.456 0 .684-.03 1.59-.094 3.16-.09 4.743.018 3.044.078 1.281.112 4.321.013.314 0 .624-.039.933a.7.7 0 0 1-.666.65c-.387.038-.77.107-1.157.124a3.389 3.389 0 0 1-.589-.068v-1.161a9.86 9.86 0 0 1-1.04.683m5.14.32c.042-.744.111-1.466.12-2.193.026-.705-.005-1.41-.1-2.111-.356-2.138-.274-4.283-.227-6.429v-.335c.064-.77.262-.938 1.015-.89.473.051.95.068 1.427.06.473-.03.452.43.761.67 1.622-.795 3.256-1.195 4.657.486.228-.129.392-.227.55-.322 1.33-.907 2.77-1.062 4.288-.593.89.279 1.423.868 1.526 1.818.34 3.096.598 6.188.486 9.301-.021.727-.198.89-.924.873a8.382 8.382 0 0 1-1.183-.099c-.585-.099-.696-.25-.726-.834-.117-2.253-.237-4.506-.349-6.764 0-.172-.013-.34-.034-.507-.116-1.015-1.015-1.432-1.91-.912a1.631 1.631 0 0 0-.91 1.651c.09 2.146.076 4.292.12 6.438 0 .43-.173.632-.581.662-.409.026-.847.073-1.269.073-.597 0-.765-.142-.774-.74-.038-1.948-.047-3.896-.081-5.843 0-.452-.048-.903-.146-1.342-.185-.761-.839-1.333-1.458-1.346-.62-.017-1.363.598-1.518 1.385a8.08 8.08 0 0 0-.099 2.012c.108 1.518.288 3.032.421 4.55.04.309.018.623-.064.92-.069.197-.305.468-.482.481-.787.048-1.573.017-2.356 0-.069 0-.138-.09-.198-.129m24.938 2.88a.634.634 0 0 1-.1-.228c-.055-.374.444-.83.667-1.083.357-.409.821-1.153 1.38-.74.478.349.942.718 1.402 1.092.933.749 1.75.456 1.918-.74a10.74 10.74 0 0 0 .095-1.857c-.086-2.369-.207-4.734-.314-7.103a15.042 15.042 0 0 0-.043-.761c-.06-.753-.1-.783-.882-.744-.683.03-.8-.039-.911-.684a8.51 8.51 0 0 1-.095-1.097.566.566 0 0 1 .477-.636.417.417 0 0 1 .147 0c1.156-.013 2.317-.013 3.478 0 .37 0 .555.194.568.576.086 1.944.215 3.887.262 5.835.052 2.03-.017 4.068.052 6.098.056 1.617-.37 2.958-1.729 3.913-.946.658-1.995.632-3.143.284a6.587 6.587 0 0 1-1.858-.925c-.318-.228-1.092-.735-1.363-1.178m7.219-18.955a1.45 1.45 0 0 0-.912-.228c-.976.056-2.004.911-1.849 1.917 0 .065.021.13.034.19.1.52.284.937.714 1.096.645.25 1.38.116 1.892-.348l.065-.047c.094-.082.189-.172.27-.267.607-.667.482-1.84-.214-2.313"/><path d="M51.57 18.168c-.365.18-.674.46-.89.808-.296.482-.292 1.135-.37 1.69a4.426 4.426 0 0 0 .143 2.133c.632 1.733 3.087 2.46 4.575 1.324.727-.55 1.277-1.032 1.436-1.974.086-.451.133-.907.133-1.363-.025-.924-.124-1.909-1.032-2.382-1.087-.559-2.812-.847-3.994-.25m4.317 8.562c-.426.21-.882.52-1.32.507-1.174-.038-2.387.018-3.492-.485-1.853-.843-3.134-2.202-3.165-4.322a12.363 12.363 0 0 1 .68-4.575 3.435 3.435 0 0 1 2.584-2.305 9.152 9.152 0 0 1 4.61.125c.215.06.503.18.65.094.038-.025.08-.335.184-.412.176-.104.383-.16.59-.151.524-.004 1.053.026 1.573.099.37.03.537.12.585.52.013.228.013.456 0 .684-.03 1.59-.1 3.16-.09 4.743.012 3.044.072 1.281.107 4.321.013.314 0 .624-.039.933a.697.697 0 0 1-.662.65c-.387.038-.774.107-1.161.124a3.34 3.34 0 0 1-.585-.068v-1.161c-.335.249-.684.477-1.045.683m4.73-11.479c1.27-.653 2.821-.528 3.712.31.098-.034.193-.073.283-.125 1.062-.658 1.596-.658 2.593.073.486.357.912.779 1.385 1.161.28.181.378.547.228.843-.271.503-.576.985-.912 1.44-.228.319-.524.293-.8 0a5.621 5.621 0 0 0-.812-.752c-.912-.606-1.87-.215-2.125.839a2.276 2.276 0 0 0-.047.593c.013 1.767.017 3.535.06 5.302.035.477.112.955.228 1.42.082.403-.051.73-.434.769a20.9 20.9 0 0 1-2.318.15c-.658 0-.74-.155-.705-.778.155-2.993.013-5.981-.185-8.97-.051-.76-.094-1.522-.142-2.275m-25.113 2.333c-.602.137-1.368.228-2.069.494-1.075.409-1.505 1.368-1.234 2.468.116.379.202.766.258 1.153.078.954.585 1.625 1.307 2.176.727.55 2.899.49 3.548-.095.133-.107.24-.24.318-.391.697-1.432 1.028-2.924.636-4.507a1.263 1.263 0 0 0-1.019-1.019c-.52-.107-1.053-.172-1.745-.28m-3.651 8.218v5.964a2.981 2.981 0 0 1-.585.073c-.391-.021-.774-.09-1.16-.124a.701.701 0 0 1-.667-.654 5.578 5.578 0 0 1-.04-.929c.04-3.044.095-6.093.113-9.137 0-1.591-.06-3.165-.09-4.743a4.536 4.536 0 0 1 0-.684c.047-.456.292-.697.662-.507.726.374 1.56.025 2.274.455.15.086.435-.034.65-.09a9.152 9.152 0 0 1 4.61-.129 3.433 3.433 0 0 1 2.583 2.31c.512 1.466.744 3.018.68 4.57-.03 2.12-1.312 3.479-3.165 4.326-1.105.503-2.322.456-3.496.482-.438.012-.894-.297-1.32-.504a12.75 12.75 0 0 1-1.04-.683m33.657-15.97l.034-.039-.034.039z"/></g></svg>