<svg xmlns="http://www.w3.org/2000/svg" width="32" height="32" viewBox="0 0 32 32"><g transform="translate(-124.14 -716.712)"><rect width="32" height="32" transform="translate(124.14 716.712)" fill="#e0e0e0" opacity="0"/><path d="M149.15,727a.8.8,0,0,1,.579.251.87.87,0,0,1,.241.606V733a.818.818,0,0,1-1.633.1l-.006-.1v-3.074l-6.382,6.679a.793.793,0,0,1-1.082.072l-.077-.072-3.516-3.679-5.563,5.823a.794.794,0,0,1-1.082.071l-.076-.071a.888.888,0,0,1-.068-1.133l.068-.08L136.7,731.1a.793.793,0,0,1,1.081-.071l.077.071,3.516,3.679,5.8-6.073h-2.938a.833.833,0,0,1-.812-.757l-.006-.1a.845.845,0,0,1,.723-.852l.095-.005Z" transform="translate(0 -0.45)" fill="#2983ff" fill-rule="evenodd"/></g></svg>