<svg xmlns="http://www.w3.org/2000/svg" width="32" height="32.001" viewBox="0 0 32 32.001"><g transform="translate(-124.14 -821.976)"><rect width="32" height="32.001" transform="translate(124.14 821.976)" fill="#e0e0e0" opacity="0"/><path d="M143.3,835.725a.921.921,0,0,1,.914.813l.006.106v9.2a.92.92,0,0,1-1.834.106l-.006-.106v-9.2a.919.919,0,0,1,.92-.919Zm4.606-3.22a.921.921,0,0,1,.914.812l.006.108v12.42a.92.92,0,0,1-1.834.106l-.006-.106v-12.42a.92.92,0,0,1,.92-.92Zm-9.1-2.3a.919.919,0,0,1,.914.812l.006.108v14.72a.92.92,0,0,1-1.833.106l-.007-.106v-14.72a.92.92,0,0,1,.92-.92Zm-4.49,9.2a.92.92,0,0,1,.913.812l.007.108v5.52a.92.92,0,0,1-1.834.106l-.007-.106v-5.52A.921.921,0,0,1,134.318,839.405Z" transform="translate(-0.484 -0.46)" fill="#2983ff" fill-rule="evenodd"/></g></svg>