<svg xmlns="http://www.w3.org/2000/svg" width="32" height="32.001" viewBox="0 0 32 32.001"><g transform="translate(-124.14 -874.61)"><rect width="32" height="32.001" transform="translate(124.14 874.61)" fill="#e0e0e0" opacity="0"/><path d="M140.14,887.28a3.331,3.331,0,1,1-3.33,3.33,3.33,3.33,0,0,1,3.33-3.33Zm0,1.788a1.543,1.543,0,1,0,1.543,1.542,1.542,1.542,0,0,0-1.543-1.542Zm0-8.286a2.518,2.518,0,0,0-2.519,2.518v.138l-.007.074a.436.436,0,0,1-.138.251l-.046.034-.037.008a.893.893,0,0,0-.117.043.444.444,0,0,1-.492-.091l-.042-.041a2.519,2.519,0,1,0-3.562,3.562l.049.049a.443.443,0,0,1,.082.485.475.475,0,0,1-.43.345h-.052a2.518,2.518,0,1,0,0,5.036h.137a.457.457,0,0,1,.321.772l-.042.042a2.519,2.519,0,1,0,3.563,3.562l.048-.048a.441.441,0,0,1,.485-.082.472.472,0,0,1,.345.429v.053a2.518,2.518,0,0,0,5.036,0v-.139a.446.446,0,0,1,.27-.405.453.453,0,0,1,.5.086l.042.042a2.519,2.519,0,1,0,3.561-3.563l-.048-.048a.458.458,0,0,1,.33-.766h.069a2.518,2.518,0,1,0,0-5.036h-.137l-.076-.007a.452.452,0,0,1-.25-.138l-.034-.045-.009-.038a.832.832,0,0,0-.041-.116.45.45,0,0,1,.089-.494l.042-.041a2.519,2.519,0,0,0-3.562-3.562l-.049.049a.441.441,0,0,1-.485.082.45.45,0,0,1-.28-.412v-.07a2.518,2.518,0,0,0-2.518-2.518Zm0,1.787a.731.731,0,0,0-.731.731v.141a2.234,2.234,0,0,1-1.354,2.045.986.986,0,0,1-.113.039l-.119.024-.142.045a2.238,2.238,0,0,1-2.025-.45l-.128-.117-.048-.048a.732.732,0,1,0-1.035,1.035l.055.056a2.212,2.212,0,0,1,.468,2.411l-.061.148a2.243,2.243,0,0,1-2,1.314h-.073a.731.731,0,1,0,0,1.463h.141a2.244,2.244,0,0,1,1.586,3.816l-.049.049a.732.732,0,1,0,1.036,1.035l.055-.055a2.212,2.212,0,0,1,2.412-.468l.149.061a2.244,2.244,0,0,1,1.313,2v.074a.731.731,0,0,0,1.462,0v-.142a2.245,2.245,0,0,1,3.816-1.586l.049.05a.732.732,0,1,0,1.034-1.037l-.054-.054a2.244,2.244,0,0,1,1.6-3.809h.073a.731.731,0,1,0,0-1.462h-.14a2.236,2.236,0,0,1-2.045-1.355.892.892,0,0,1-.073-.352l-.035-.023a2.236,2.236,0,0,1,.565-2.152l.05-.05a.731.731,0,1,0-1.035-1.034l-.056.055a2.245,2.245,0,0,1-3.809-1.6V883.3A.731.731,0,0,0,140.14,882.569Z" fill="#2983ff" fill-rule="evenodd"/></g></svg>