<svg xmlns="http://www.w3.org/2000/svg" width="32" height="32" viewBox="0 0 32 32"><g transform="translate(-955 -3180)"><path d="M144.275,161.413l5.445,5.445a1.029,1.029,0,0,1-1.358,1.54l-.1-.085-5.445-5.445-5.445,5.445a1.029,1.029,0,0,1-1.54-1.358l.085-.1,5.445-5.445-5.445-5.445a1.029,1.029,0,0,1,1.359-1.54l.1.085,5.445,5.445,5.445-5.445a1.029,1.029,0,0,1,1.54,1.358l-.085.1Z" transform="translate(828.381 3034.789)" fill="#718096" fill-rule="evenodd"/><rect width="32" height="32" transform="translate(955 3180)" fill="#e0e0e0" opacity="0"/></g></svg>