<svg xmlns="http://www.w3.org/2000/svg" width="32" height="32" viewBox="0 0 32 32"><g transform="translate(-124.14 -558.814)"><rect width="32" height="32" transform="translate(124.14 558.814)" fill="#e0e0e0" opacity="0"/><path d="M147.629,574.523h-3.914l-.112.007a.889.889,0,0,0-.632.41l-1.522,2.388h-2.618l-1.521-2.388-.067-.093a.875.875,0,0,0-.677-.324h-3.915l2.436-5.088a.9.9,0,0,1,.689-.515l.111-.007h8.506l.112.007a.893.893,0,0,1,.687.511l2.437,5.092Zm2.237.5L132.1,576.394h3.989l1.523,2.388.066.094a.888.888,0,0,0,.677.323h3.573l.111-.007a.894.894,0,0,0,.634-.41l1.521-2.388h3.989v4.674a.915.915,0,0,1-.894.936h-14.3l-.1-.007a.92.92,0,0,1-.789-.929v-4.674h-.893a.909.909,0,0,1-.888-.827l-.007-.109v5.61a2.746,2.746,0,0,0,2.681,2.806h14.3a2.746,2.746,0,0,0,2.682-2.806v-5.61l0-.047a.942.942,0,0,0-.1-.388Zm-17.214-.5h-1.446l-.1.006a.9.9,0,0,0-.687.494Z" transform="translate(0 -0.514)" fill="#2983ff" fill-rule="evenodd"/></g></svg>