<svg xmlns="http://www.w3.org/2000/svg" width="32" height="32" viewBox="0 0 32 32"><g transform="translate(-955 -3218)"><path d="M151.533,207.612a1.03,1.03,0,0,1,.116,2.05l-.116.007h-18a1.03,1.03,0,0,1-.117-2.05l.117-.007Zm0-6.173a1.031,1.031,0,0,1,.116,2.051l-.116.007h-18a1.031,1.031,0,0,1-.117-2.051l.117-.007Zm0,12.345a1.031,1.031,0,0,1,.116,2.051l-.116.007h-18a1.031,1.031,0,0,1-.117-2.051l.117-.007Z" transform="translate(828.467 3025.561)" fill="#718096" fill-rule="evenodd"/><rect width="32" height="32" transform="translate(955 3218)" fill="#e0e0e0" opacity="0"/></g></svg>