<svg xmlns="http://www.w3.org/2000/svg" width="32" height="32" viewBox="0 0 32 32"><g transform="translate(-124.14 -397.561)"><rect width="32" height="32" transform="translate(124.14 397.561)" fill="#e0e0e0" opacity="0"/><path d="M143.726,421.238h2.5a.769.769,0,0,0,.76-.777V411.3l-6.844-5.362L133.3,411.3v9.159a.773.773,0,0,0,.659.771l.1.007h2.5v-7.78a.974.974,0,0,1,.864-.966l.113-.007h5.215a.976.976,0,0,1,.972.859l.007.114v7.78Zm-1.956,0h-3.26V414.43h3.26v6.808Zm-2.234-17.3a.985.985,0,0,1,1.21,0l7.823,6.128a.972.972,0,0,1,.373.764v9.628a2.72,2.72,0,0,1-2.717,2.722H134.056a2.72,2.72,0,0,1-2.716-2.722v-9.628a.972.972,0,0,1,.373-.764Z" transform="translate(0 0)" fill="#2983ff" fill-rule="evenodd"/></g></svg>