<svg xmlns="http://www.w3.org/2000/svg" width="32" height="32" viewBox="0 0 32 32"><g transform="translate(-124.14 -450.194)"><rect width="32" height="32" transform="translate(124.14 450.194)" fill="#e0e0e0" opacity="0"/><path d="M140.14,468.16a4.508,4.508,0,0,1,4.521,4.29l0,.2v1.794a.9.9,0,0,1-1.8.1l-.006-.1v-1.794a2.7,2.7,0,0,0-2.554-2.687l-.16,0h-6.333a2.705,2.705,0,0,0-2.709,2.533l0,.159v1.794a.906.906,0,0,1-1.8.1l-.007-.1v-1.794a4.505,4.505,0,0,1,4.329-4.483l.2,0Zm-3.167-10.766a4.486,4.486,0,1,1-4.523,4.485,4.5,4.5,0,0,1,4.523-4.485Zm0,1.795a2.691,2.691,0,1,0,2.715,2.691,2.7,2.7,0,0,0-2.715-2.691Zm12.481,3.852-2.98,2.954-1.169-1.16-.085-.074a.91.91,0,0,0-1.195.074.893.893,0,0,0,0,1.269l1.809,1.794.085.075a.911.911,0,0,0,1.195-.075l3.619-3.589.076-.084a.891.891,0,0,0-.076-1.184A.909.909,0,0,0,149.454,463.04Z" fill="#2983ff" fill-rule="evenodd"/></g></svg>