<svg xmlns="http://www.w3.org/2000/svg" width="32" height="32" viewBox="0 0 32 32"><g transform="translate(-124.14 -664.079)"><rect width="32" height="32" transform="translate(124.14 664.079)" fill="#e0e0e0" opacity="0"/><path d="M140.14,677.917a2.808,2.808,0,1,1-2.68,2.806,2.747,2.747,0,0,1,2.68-2.806Zm0,1.871a.935.935,0,1,0,.894.935.915.915,0,0,0-.894-.935Zm6.95-6.337a10.628,10.628,0,0,1,0,14.544.867.867,0,0,1-1.264,0,.967.967,0,0,1,0-1.323,8.7,8.7,0,0,0,0-11.9.966.966,0,0,1,0-1.322.867.867,0,0,1,1.264,0Zm-12.635,0a.965.965,0,0,1,0,1.322,8.693,8.693,0,0,0,0,11.9.966.966,0,0,1,0,1.323.866.866,0,0,1-1.263,0,10.628,10.628,0,0,1,0-14.544.866.866,0,0,1,1.263,0ZM144.56,676.1a.866.866,0,0,0-1.263,0,.965.965,0,0,0,0,1.322,4.831,4.831,0,0,1,0,6.616.966.966,0,0,0,0,1.323.866.866,0,0,0,1.263,0,6.765,6.765,0,0,0,0-9.262Zm-7.577-.01a.866.866,0,0,0-1.263,0,6.762,6.762,0,0,0,0,9.262.866.866,0,0,0,1.263,0,.966.966,0,0,0,0-1.322,4.832,4.832,0,0,1,0-6.616A.967.967,0,0,0,136.984,676.087Z" transform="translate(0 -0.467)" fill="#2983ff" fill-rule="evenodd"/></g></svg>